<svg xmlns="http://www.w3.org/2000/svg" width="383.249" height="385.104" viewBox="0 0 383.249 385.104">
    <defs>
        <style>
            .cls-1{fill:#fff}
        </style>
    </defs>
    <g id="Group_100" data-name="Group 100" transform="translate(-1248.376 -369.284)">
        <g id="Group_53" data-name="Group 53" transform="translate(1404.492 653.315)">
            <path id="Path_55" d="M0 0a.9.9 0 0 1-.852-.62.9.9 0 0 1 .575-1.129C.1-1.871 37.65-14.232 69.11-41.451c34.833-30.138 48.326-57.377 42.461-85.722C109.255-138.361 103.11-146.6 93.8-151c-11.786-5.571-26.44-4.025-34.825.371-14.894 7.82-23.27 21.918-23.591 31.213a.9.9 0 0 1-.9.864.983.983 0 0 1-.987-.864c-.32-9.295-8.7-23.393-23.591-31.213-8.387-4.4-23.041-5.942-34.825-.369-9.309 4.4-15.454 12.641-17.769 23.829-5.86 28.341 7.632 55.58 42.466 85.718a.9.9 0 0 1 .091 1.263.9.9 0 0 1-1.264.091C-36.771-70.7-50.447-98.488-44.437-127.538-42-139.3-35.518-147.971-25.68-152.623c12.314-5.826 27.646-4.2 36.424.4 11.546 6.061 20.9 17.121 23.7 27.375 2.8-10.254 12.153-21.314 23.7-27.375 8.779-4.61 24.1-6.229 36.425-.4 9.838 4.652 16.324 13.326 18.756 25.085 6.01 29.05-7.666 56.836-43.042 87.441C38.537-12.631.655-.167.277-.044A.9.9 0 0 1 0 0" class="cls-1" data-name="Path 55"/>
        </g>
        <g id="Group_54" data-name="Group 54" transform="translate(1334.285 397.001)">
            <path id="Path_56" d="M0 0a11.592 11.592 0 0 1 16.154 3.105 11.539 11.539 0 0 1-3.1 16.109 11.513 11.513 0 0 1-16.091-3.07A11.565 11.565 0 0 1 0 0m11.243 16.546a8.389 8.389 0 0 0 2.242-11.628A8.462 8.462 0 0 0 1.813 2.667a8.459 8.459 0 0 0-2.18 11.664 8.384 8.384 0 0 0 11.61 2.215" class="cls-1" data-name="Path 56"/>
        </g>
        <g id="Group_55" data-name="Group 55" transform="translate(1354.092 396.91)">
            <path id="Path_57" d="M0 0a.64.64 0 0 1 .284-.823l.816-.391a.563.563 0 0 1 .663.108l.8.833A5.978 5.978 0 0 1 5.6-3.759a4.787 4.787 0 0 1 4.643.042 7.19 7.19 0 0 1 3.305-3.9c3.538-1.722 6 .172 7.462 3.185L23.839 1.4a.613.613 0 0 1-.283.819l-1.626.788a.608.608 0 0 1-.818-.284l-2.887-5.947c-.888-1.827-2.235-2.461-3.8-1.7a4.641 4.641 0 0 0-2.3 2.87A9.319 9.319 0 0 1 12.888-.7l2.912 6a.635.635 0 0 1-.283.819l-1.537.746a.615.615 0 0 1-.821-.284L10.275.637c-.9-1.855-2.235-2.461-3.859-1.673A3.655 3.655 0 0 0 4.389 2.1l3.438 7.078a.632.632 0 0 1-.284.816l-1.626.791A.633.633 0 0 1 5.1 10.5z" class="cls-1" data-name="Path 57"/>
        </g>
        <g id="Group_56" data-name="Group 56" transform="translate(1380.801 396.301)">
            <path id="Path_58" d="M0 0l.212-1.414a.559.559 0 0 1 .7-.424 6.69 6.69 0 0 0 3.107-.227c.91-.326 1.355-.9 1.115-1.565-.291-.819-1.102-.97-3.042-1.131C-.084-4.9-2.077-5.489-2.8-7.491c-.546-1.515.043-3.787 2.955-4.834a7.227 7.227 0 0 1 3.917-.35.726.726 0 0 1 .561.8l-.173 1.223a.678.678 0 0 1-.7.526 7.425 7.425 0 0 0-2.719.258c-1.03.375-1.2.946-1.037 1.4.286.788 1.164.847 2.533.938 2.564.175 4.722.459 5.541 2.734C8.754-2.909 7.564-.6 4.864.375A6.755 6.755 0 0 1 .413.57.542.542 0 0 1 0 0" class="cls-1" data-name="Path 58"/>
        </g>
        <g id="Group_57" data-name="Group 57" transform="translate(1395.112 379.496)">
            <path id="Path_59" d="M0 0a6.677 6.677 0 0 1 8.062 4.8 6.693 6.693 0 0 1-4.5 8.282 6.694 6.694 0 0 1-8.079-4.863A6.675 6.675 0 0 1 0 0m2.832 10.4a3.844 3.844 0 0 0 2.459-4.852A3.8 3.8 0 0 0 .737 2.709a3.8 3.8 0 0 0-2.482 4.757A3.844 3.844 0 0 0 2.832 10.4" class="cls-1" data-name="Path 59"/>
        </g>
        <g id="Group_58" data-name="Group 58" transform="translate(1406.006 377.819)">
            <path id="Path_60" d="M0 0a.635.635 0 0 1 .488-.718l.919-.175a.615.615 0 0 1 .625.34L2.585.458a4.6 4.6 0 0 1 3.359-2.541c1.2-.231 2.721-.189 2.535.732L8.014.346a.554.554 0 0 1-.707.431A2.97 2.97 0 0 0 6.188.759a3.4 3.4 0 0 0-2.558 2.1L5.161 10.9c.1.539-.234.669-.742.767L2.9 11.96a.639.639 0 0 1-.719-.489z" class="cls-1" data-name="Path 60"/>
        </g>
        <g id="Group_59" data-name="Group 59" transform="translate(1419.36 383.423)">
            <path id="Path_61" d="M0 0a5.186 5.186 0 0 1-1.351-3 5.53 5.53 0 0 1 4.867-6.24l5.609-.644a.6.6 0 0 1 .679.539l.093.8c.025.224-.07.529-.29.588L7.9-7.271A4.31 4.31 0 0 1 9.671-4a5.272 5.272 0 0 1-4.848 5.848 9.549 9.549 0 0 1-2.847-.192A1.771 1.771 0 0 0 .844 3.375a1.376 1.376 0 0 0 1.688 1.141l4.359-.5c2.787-.318 5.2.931 5.525 3.718.324 2.821-1.953 5.614-6.215 6.1-4.519.519-6.611-1.578-6.85-3.661A3.56 3.56 0 0 1 .9 6.941l-.015-.094a3.33 3.33 0 0 1-2.74-2.933A4.443 4.443 0 0 1 0 0m6.924-3.882a2.714 2.714 0 0 0-3.03-2.636 2.8 2.8 0 0 0-2.482 3.269A2.8 2.8 0 0 0 4.573-.623a2.714 2.714 0 0 0 2.351-3.259m-1.057 15.09c1.955-.224 3.539-1.414 3.362-2.951-.06-.511-.531-1.788-2.614-1.55-.929.108-1.891.217-2.812.388-.185.088-1.7.781-1.531 2.223.15 1.312 1.639 2.114 3.6 1.89" class="cls-1" data-name="Path 61"/>
        </g>
        <g id="Group_60" data-name="Group 60" transform="translate(1435.241 382.275)">
            <path id="Path_62" d="M0 0c1.192-.056 2.715.679 2.846 3.448a8.314 8.314 0 0 1-2.879 6.6c-.279.273-.536.287-.774.038l-.507-.458c-.2-.186-.187-.543.122-.816A5.97 5.97 0 0 0 .885 4.319a3.786 3.786 0 0 1-.8.168A2.255 2.255 0 0 1-2.246 2.37 2.313 2.313 0 0 1 0 0" class="cls-1" data-name="Path 62"/>
        </g>
        <g id="Group_61" data-name="Group 61" transform="translate(1450.824 376.114)">
            <path id="Path_63" d="M0 0l-1.353-.07a.614.614 0 0 1-.581-.644l.077-1.45a.591.591 0 0 1 .644-.577l1.351.07.186-3.578a.639.639 0 0 1 .644-.581l1.838.063a.611.611 0 0 1 .549.644l-.189 3.609 3.287.169a.591.591 0 0 1 .581.644L6.957-.252a.613.613 0 0 1-.644.581L3.03.157 2.7 6.539c-.056 1.095.354 1.309.964 1.34a5.209 5.209 0 0 0 2-.48.483.483 0 0 1 .725.33l.5 1.449a.53.53 0 0 1-.327.756 9.865 9.865 0 0 1-3.819.774C.195 10.574-.464 8.989-.348 6.7z" class="cls-1" data-name="Path 63"/>
        </g>
        <g id="Group_62" data-name="Group 62" transform="translate(1462.316 374.823)">
            <path id="Path_64" d="M0 0a.637.637 0 0 1 .681-.536l.929.109a.616.616 0 0 1 .49.515l.222 1.13A4.6 4.6 0 0 1 6.3-.2c1.214.144 2.649.637 2.2 1.46l-.958 1.481a.553.553 0 0 1-.8.2 2.872 2.872 0 0 0-1.064-.353 3.4 3.4 0 0 0-3.072 1.227l-.959 8.143c-.063.545-.424.566-.936.507l-1.539-.182a.632.632 0 0 1-.535-.679z" class="cls-1" data-name="Path 64"/>
        </g>
        <g id="Group_63" data-name="Group 63" transform="translate(1472.922 376.317)">
            <path id="Path_65" d="M0 0a.569.569 0 0 1 .7-.714L2.79-.3a.7.7 0 0 1 .467.452l2.26 9.192.031.007 5.461-7.663a.641.641 0 0 1 .733-.217l1.8.354a.554.554 0 0 1 .374.931L.1 21.779a.646.646 0 0 1-.614.273l-1.9-.374a.575.575 0 0 1-.368-.959l6.033-8.24z" class="cls-1" data-name="Path 65"/>
        </g>
        <g id="Group_64" data-name="Group 64" transform="translate(1489.057 387.557)">
            <path id="Path_66" d="M0 0a5.176 5.176 0 0 1-.093-3.283A5.525 5.525 0 0 1 6.8-7.168L12.223-5.6a.59.59 0 0 1 .419.756l-.223.777c-.063.217-.268.459-.493.427l-1.838-.024a4.31 4.31 0 0 1 .374 3.7A5.267 5.267 0 0 1 3.738 3.56a9.384 9.384 0 0 1-2.551-1.274A1.773 1.773 0 0 0-.522 3.441 1.374 1.374 0 0 0 .6 5.139l4.213 1.214c2.695.781 4.445 2.86 3.668 5.559C7.694 14.639 4.517 16.34.4 15.15c-4.369-1.26-5.493-4-4.912-6.014a3.555 3.555 0 0 1 2.67-2.387l.026-.1A3.321 3.321 0 0 1-3.219 2.9 4.443 4.443 0 0 1 0 0m1.1 12.6c1.891.546 3.81.059 4.241-1.425.142-.5.2-1.859-1.817-2.44-.9-.258-1.827-.528-2.744-.721-.2.008-1.864.064-2.268 1.457-.366 1.27.7 2.586 2.588 3.129M7.885-.914A2.721 2.721 0 0 0 6.1-4.519a2.8 2.8 0 0 0-3.55 2.065 2.8 2.8 0 0 0 1.908 3.637 2.719 2.719 0 0 0 3.427-2.1" class="cls-1" data-name="Path 66"/>
        </g>
        <g id="Group_65" data-name="Group 65" transform="translate(1503.654 392.066)">
            <path id="Path_67" d="M0 0a5.169 5.169 0 0 1 .191-3.28A5.527 5.527 0 0 1 7.4-6.553l5.268 2.031a.59.59 0 0 1 .353.791l-.29.752c-.081.21-.306.434-.529.385l-1.83-.189a4.319 4.319 0 0 1 .054 3.721 5.274 5.274 0 0 1-7.01 2.94 9.4 9.4 0 0 1-2.432-1.5 1.779 1.779 0 0 0-1.8 1 1.376 1.376 0 0 0 .965 1.799l4.095 1.575c2.62 1.012 4.183 3.238 3.173 5.856-1.017 2.65-4.333 4.071-8.338 2.527-4.246-1.635-5.128-4.463-4.373-6.419A3.562 3.562 0 0 1-2.427 6.57l.036-.091A3.325 3.325 0 0 1-3.46 2.611 4.447 4.447 0 0 1 0 0m0 12.657c1.836.707 3.793.388 4.349-1.057.186-.483.359-1.83-1.6-2.587-.871-.336-1.774-.682-2.67-.959a2.368 2.368 0 0 0-2.388 1.26c-.474 1.232.473 2.636 2.309 3.343M7.935-.228a2.718 2.718 0 0 0-1.463-3.745 2.8 2.8 0 0 0-3.715 1.75 2.8 2.8 0 0 0 1.584 3.794 2.717 2.717 0 0 0 3.594-1.8" class="cls-1" data-name="Path 67"/>
        </g>
        <g id="Group_66" data-name="Group 66" transform="translate(1524.782 381.704)">
            <path id="Path_68" d="M0 0a.633.633 0 0 1 .821-.28L2.5.55a.637.637 0 0 1 .278.822l-4.5 9.08a6.673 6.673 0 0 1 4.089.473c3.265 1.617 3.668 4.732 2.109 7.883L1.6 24.622a.632.632 0 0 1-.821.276l-1.619-.8a.615.615 0 0 1-.278-.823l2.9-5.87c.931-1.879.492-3.391-1.014-4.137a3.985 3.985 0 0 0-4.023.276L-6.7 20.516a.584.584 0 0 1-.851.262l-1.648-.816a.631.631 0 0 1-.277-.818z" class="cls-1" data-name="Path 68"/>
        </g>
        <g id="Group_67" data-name="Group 67" transform="translate(1541.353 400.54)">
            <path id="Path_69" d="M0 0a5.806 5.806 0 0 1 1.939 8.188 7.4 7.4 0 0 1-.509.71.6.6 0 0 1-.783.165l-7.476-4.589a3.734 3.734 0 0 0 1.358 4.882 5.531 5.531 0 0 0 2.935.7c.448.011.709.018.76.427l.127 1.519c.058.336 0 .606-.493.68a7.444 7.444 0 0 1-4.911-1.121A6.453 6.453 0 0 1-9.038 2.4 6.483 6.483 0 0 1 0 0m-.3 6.1a3.054 3.054 0 0 0-1.029-4 3.267 3.267 0 0 0-4.3.728z" class="cls-1" data-name="Path 69"/>
        </g>
        <g id="Group_68" data-name="Group 68" transform="translate(1548.922 409.084)">
            <path id="Path_70" d="M0 0l-1.1-.794a.61.61 0 0 1-.135-.854l.851-1.177a.593.593 0 0 1 .857-.136l1.1.794 2.1-2.9a.636.636 0 0 1 .855-.133l1.508 1.049a.606.606 0 0 1 .11.836L4.027-.389l2.664 1.932a.592.592 0 0 1 .136.855l-.852 1.176a.61.61 0 0 1-.856.136L2.454 1.782l-3.749 5.17c-.642.889-.417 1.291.078 1.652a5.244 5.244 0 0 0 1.936.683c.452.09.5.36.431.671l-.364 1.488A.535.535 0 0 1 .1 11.9a9.86 9.86 0 0 1-3.623-1.432c-2.065-1.494-1.755-3.182-.413-5.04z" class="cls-1" data-name="Path 70"/>
        </g>
        <g id="Group_69" data-name="Group 69" transform="translate(1570.255 422.54)">
            <path id="Path_71" d="M0 0a6.669 6.669 0 0 1 .184 9.37 6.689 6.689 0 0 1-9.4.55A6.688 6.688 0 0 1-9.36.5 6.671 6.671 0 0 1 0 0m-7.331 7.89a3.843 3.843 0 0 0 5.413-.473 3.794 3.794 0 0 0 .009-5.362 3.792 3.792 0 0 0-5.347.4 3.841 3.841 0 0 0-.075 5.435" class="cls-1" data-name="Path 71"/>
        </g>
        <g id="Group_70" data-name="Group 70" transform="translate(1572.345 436.874)">
            <path id="Path_72" d="M0 0a5.184 5.184 0 0 1 1.652-2.839 5.527 5.527 0 0 1 7.911.339l3.784 4.19a.593.593 0 0 1-.046.865l-.6.542c-.168.151-.469.252-.646.1L10.508 2.2a4.315 4.315 0 0 1-1.631 3.348A5.276 5.276 0 0 1 1.3 5 9.447 9.447 0 0 1-.2 2.573a1.776 1.776 0 0 0-2.062.076A1.374 1.374 0 0 0-2.2 4.683L.735 7.942C2.616 10.025 3 12.717.921 14.6c-2.108 1.9-5.7 1.673-8.58-1.512-3.049-3.378-2.557-6.3-1-7.705a3.552 3.552 0 0 1 3.525-.619l.074-.064a3.329 3.329 0 0 1 .8-3.934A4.441 4.441 0 0 1 0 0m-5.716 11.292C-4.4 12.751-2.51 13.35-1.36 12.311c.383-.343 1.148-1.471-.257-3.028-.627-.693-1.274-1.414-1.95-2.065a2.374 2.374 0 0 0-2.7.045c-.982.886-.77 2.566.55 4.029m12.9-7.911a2.718 2.718 0 0 0 .387-4 2.8 2.8 0 0 0-4.105-.116 2.8 2.8 0 0 0-.3 4.095 2.716 2.716 0 0 0 4.019.021" class="cls-1" data-name="Path 72"/>
        </g>
        <g id="Group_71" data-name="Group 71" transform="translate(1596.921 453.364)">
            <path id="Path_73" d="M0 0a5.814 5.814 0 0 1-1.524 8.282 8.226 8.226 0 0 1-.753.441.591.591 0 0 1-.782-.165l-5-7.21a3.733 3.733 0 0 0-.724 5.015 5.487 5.487 0 0 0 2.4 1.827c.407.19.642.3.523.7l-.494 1.443c-.082.332-.24.56-.726.423a7.413 7.413 0 0 1-4.047-3.007 6.455 6.455 0 0 1 1.881-9.191A6.487 6.487 0 0 1 0 0m-2.73 5.464a3.049 3.049 0 0 0 .668-4.074A3.259 3.259 0 0 0-6.3.322z" class="cls-1" data-name="Path 73"/>
        </g>
        <g id="Group_72" data-name="Group 72" transform="translate(1601.718 462.416)">
            <path id="Path_74" d="M0 0a.633.633 0 0 1 .838.217l.475.808a.611.611 0 0 1-.114.7l-.763.865a4.578 4.578 0 0 1 3.523 2.3c.619 1.06 1.092 2.5.161 2.635l-1.754.133a.55.55 0 0 1-.642-.521 2.979 2.979 0 0 0-.361-1.057 3.4 3.4 0 0 0-2.832-1.7l-7.063 4.143c-.473.28-.709.007-.97-.437l-.784-1.334a.637.637 0 0 1 .219-.84z" class="cls-1" data-name="Path 74"/>
        </g>
        <g id="Group_73" data-name="Group 73" transform="translate(1606.2 474.573)">
            <path id="Path_75" d="M0 0l-.683-1.354a.615.615 0 0 1 .272-.823l1.3-.651a.591.591 0 0 1 .822.269L2.389-1.2 5.961-3c3.57-1.8 6.429-.567 7.823 2.194a5.8 5.8 0 0 1 .5 3.865.6.6 0 0 1-.6.448l-1.657-.066c-.333-.015-.508-.288-.45-.676a4.394 4.394 0 0 0-.271-2.254C10.669-.756 9.3-1.183 7.368-.21L3.8 1.589 5.364 4.7a.59.59 0 0 1-.271.822L3.8 6.175a.615.615 0 0 1-.823-.27l-1.57-3.112-8.579 4.327A.64.64 0 0 1-8 6.847l-.855-1.7a.63.63 0 0 1 .273-.822z" class="cls-1" data-name="Path 75"/>
        </g>
        <g id="Group_74" data-name="Group 74" transform="translate(1610.676 489.022)">
            <path id="Path_76" d="M0 0a9.235 9.235 0 0 1 .619 2.5c1.889-.747 2.486-1.415 1.856-2.937A13.781 13.781 0 0 0 .553-3.553c-.236-.319-.086-.627.205-.854l1-.693a.578.578 0 0 1 .846.1A13.326 13.326 0 0 1 5-1.169C6.582 2.646 4.405 3.969 1.426 5.2l-6.349 2.637a.632.632 0 0 1-.8-.329l-.347-.837c-.11-.266-.042-.437.209-.678l.681-.634a5.552 5.552 0 0 1-3.044-3.035 4.011 4.011 0 0 1 2.4-5.5C-3.649-4.082-1.262-3.045 0 0m-5.872 2.013a3.822 3.822 0 0 0 2.6 2.065l1.908-.791A4.9 4.9 0 0 0-1.749 1C-2.344-.427-3.5-1.1-4.719-.6a1.939 1.939 0 0 0-1.153 2.613" class="cls-1" data-name="Path 76"/>
        </g>
        <g id="Group_75" data-name="Group 75" transform="translate(1618.304 497.272)">
            <path id="Path_77" d="M0 0a.633.633 0 0 1 .774.389l.3.885a.611.611 0 0 1-.255.665l-.929.683a4.59 4.59 0 0 1 2.959 2.993c.385 1.162.547 2.674-.392 2.611L.712 7.988a.55.55 0 0 1-.518-.644 2.978 2.978 0 0 0-.131-1.11 3.387 3.387 0 0 0-2.415-2.257l-7.778 2.576c-.52.175-.693-.144-.854-.634l-.488-1.47a.631.631 0 0 1 .388-.773z" class="cls-1" data-name="Path 77"/>
        </g>
        <g id="Group_76" data-name="Group 76" transform="translate(1621.857 508.568)">
            <path id="Path_78" d="M0 0a.632.632 0 0 1 .752.427L1.236 2.2a.642.642 0 0 1-.431.756l-11.271 3.068a.63.63 0 0 1-.751-.43l-.483-1.772a.639.639 0 0 1 .431-.756zm7.377-2.38A1.853 1.853 0 0 1 9.7-1.106a1.888 1.888 0 0 1-1.339 2.338 1.878 1.878 0 0 1-2.3-1.344A1.844 1.844 0 0 1 7.377-2.38" class="cls-1" data-name="Path 78"/>
        </g>
        <g id="Group_77" data-name="Group 77" transform="translate(1624.038 516.703)">
            <path id="Path_79" d="M0 0a.632.632 0 0 1 .718.479L.9 1.4a.526.526 0 0 1-.279.585l-1 .592a6.583 6.583 0 0 1 2.647 4.074c.763 3.857-1.675 5.821-4.963 6.472l-6.36 1.26a.633.633 0 0 1-.72-.483l-.357-1.8a.613.613 0 0 1 .482-.721l6.486-1.279c2.025-.4 2.936-1.6 2.613-3.248A4.283 4.283 0 0 0-3.145 3.71l-7.72 1.53c-.41.081-.637-.07-.746-.609l-.325-1.645a.639.639 0 0 1 .483-.721z" class="cls-1" data-name="Path 79"/>
        </g>
        <g id="Group_78" data-name="Group 78" transform="translate(1619.496 535.892)">
            <path id="Path_80" d="M0 0a5.188 5.188 0 0 1 3.009-1.319A5.524 5.524 0 0 1 9.2 3.612l.586 5.615a.594.594 0 0 1-.545.672l-.8.084c-.224.021-.527-.077-.581-.3l-.672-1.709A4.32 4.32 0 0 1 3.9 9.71 5.268 5.268 0 0 1-1.9 4.8a9.584 9.584 0 0 1 .22-2.843A1.767 1.767 0 0 0-3.385.809a1.373 1.373 0 0 0-1.153 1.676l.455 4.362c.29 2.79-.982 5.195-3.773 5.485-2.822.3-5.592-2.009-6.039-6.276-.472-4.523 1.647-6.592 3.732-6.808A3.562 3.562 0 0 1-6.95.823l.1-.008a3.326 3.326 0 0 1 2.96-2.709A4.444 4.444 0 0 1 0 0m-11.268 5.751C-11.063 7.7-9.89 9.3-8.35 9.14c.511-.053 1.794-.512 1.575-2.594-.1-.931-.2-1.894-.359-2.815-.082-.185-.761-1.7-2.2-1.554-1.316.137-2.134 1.617-1.931 3.574M3.808 6.962a2.715 2.715 0 0 0 2.67-3 2.8 2.8 0 0 0-3.245-2.516A2.8 2.8 0 0 0 .576 4.579a2.713 2.713 0 0 0 3.232 2.383" class="cls-1" data-name="Path 80"/>
        </g>
        <g id="Group_79" data-name="Group 79" transform="translate(1272.745 529.395)">
            <path id="Path_81" d="M0 0a.613.613 0 0 1 .53.686L-.569 9.4A6.964 6.964 0 0 1-8.3 15.506a7.158 7.158 0 0 1-5.9-5.562l-8.684 3.361a.611.611 0 0 1-.86-.662l.315-2.5a.6.6 0 0 1 .352-.476l9.022-3.182.611-4.834L-21.606.62a.633.633 0 0 1-.532-.686l.263-2.08a.612.612 0 0 1 .684-.532zm-11.422 7.76a4.008 4.008 0 0 0 3.476 4.407 3.957 3.957 0 0 0 4.3-3.423l.719-5.7-7.773-.982z" class="cls-1" data-name="Path 81"/>
        </g>
        <g id="Group_80" data-name="Group 80" transform="translate(1249.212 549.627)">
            <path id="Path_82" d="M0 0l21.783 9.756a.759.759 0 0 1 .36.549v.322a.758.758 0 0 1-.352.55L.143 21.167a.57.57 0 0 1-.843-.542l-.014-2.035a.761.761 0 0 1 .479-.745l4.409-2.03L4.1 5.265C2.613 4.627 1.155 3.959-.333 3.326a.814.814 0 0 1-.49-.739L-.836.553A.57.57 0 0 1 0 0m6.941 14.569l8.814-4.029v-.161L6.885 6.5z" class="cls-1" data-name="Path 82"/>
        </g>
        <g id="Group_81" data-name="Group 81" transform="translate(1270.941 575.11)">
            <path id="Path_83" d="M0 0a.632.632 0 0 1 .695.518L1 2.657a.613.613 0 0 1-.518.693L-12.7 5.257c-3.192.459-5.385 2.864-4.916 6.119.476 3.287 3.234 5.005 6.395 4.551l13.249-1.915a.606.606 0 0 1 .693.518l.309 2.138a.635.635 0 0 1-.519.694l-13.4 1.939a8.582 8.582 0 0 1-9.911-7.463 8.544 8.544 0 0 1 7.4-9.9z" class="cls-1" data-name="Path 83"/>
        </g>
        <g id="Group_82" data-name="Group 82" transform="translate(1276.125 602.087)">
            <path id="Path_84" d="M0 0a.647.647 0 0 1 .634.41L.789.9a.664.664 0 0 1-.178.63l-13.748 11.327.039.126 17.732 1.523a.612.612 0 0 1 .5.42l.152.493a.65.65 0 0 1-.29.7l-19.53 10.211a.55.55 0 0 1-.88-.336l-.621-2a.669.669 0 0 1 .25-.721l13.067-6.55c-.011-.031-.028-.094-.028-.094l-15.9-1.152a.546.546 0 0 1-.5-.416l-.171-.557a.582.582 0 0 1 .175-.63L-6.693 3.9a2.62 2.62 0 0 1-.038-.126l-14.464 2.058a.631.631 0 0 1-.6-.42l-.621-2a.58.58 0 0 1 .527-.809z" class="cls-1" data-name="Path 84"/>
        </g>
        <g id="Group_83" data-name="Group 83" transform="translate(1264.253 634.48)">
            <path id="Path_85" d="M0 0l23.846-.613a.76.76 0 0 1 .559.337l.141.29a.752.752 0 0 1-.078.648L9.272 19.014a.569.569 0 0 1-.994-.126l-.889-1.824a.746.746 0 0 1 .109-.878l3.094-3.735L5.97 2.972c-1.616.073-3.217.1-4.832.171a.817.817 0 0 1-.762-.458L-.513.861A.57.57 0 0 1 0 0m12.549 10.133l6.2-7.438-.069-.143-9.669.336z" class="cls-1" data-name="Path 85"/>
        </g>
        <g id="Group_84" data-name="Group 84" transform="translate(1300.417 656.55)">
            <path id="Path_86" d="M0 0a.615.615 0 0 1 .858.129l4.305 5.8c2.326 3.133 1.927 6.923-.793 8.943a6.2 6.2 0 0 1-6.117.364c.45 1.8.566 4.6-1.818 6.37-2.9 2.153-6.766 1.327-9.188-1.935l-4.519-6.087a.615.615 0 0 1 .127-.858zm-10.389 17.876a3.433 3.433 0 0 0 4.9.7c1.581-1.169 1.605-3.517.355-5.2l-2.634-3.55-5.541 4.113zm7.566-6.258a3.23 3.23 0 0 0 4.75.609 3.113 3.113 0 0 0 .688-4.645l-2.6-3.5-5.435 4.039z" class="cls-1" data-name="Path 86"/>
        </g>
        <g id="Group_85" data-name="Group 85" transform="translate(1313.853 673.754)">
            <path id="Path_87" d="M0 0a.612.612 0 0 1 .866.021l8.89 9.356a.616.616 0 0 1-.021.869l-1.311 1.246a.617.617 0 0 1-.867-.021L.534 4.078l-4.771 4.533L1.7 14.855a.641.641 0 0 1-.023.869L.364 16.966a.61.61 0 0 1-.864-.021L-6.437 10.7l-5.028 4.778 7.023 7.393a.61.61 0 0 1-.023.864l-1.286 1.222a.612.612 0 0 1-.866-.021l-8.891-9.357a.611.611 0 0 1 .022-.864z" class="cls-1" data-name="Path 87"/>
        </g>
        <g id="Group_86" data-name="Group 86" transform="translate(1336.753 694.063)">
            <path id="Path_88" d="M0 0a11.733 11.733 0 0 1 4.216 7.26.626.626 0 0 1-.544.724c-.7.1-1.381.168-2.083.27-.383.059-.564-.126-.63-.553a8.607 8.607 0 0 0-2.892-5.156 8.252 8.252 0 0 0-11.572 1.438 8.248 8.248 0 0 0 1.05 11.594A11.265 11.265 0 0 0-8 17.761l2.27-2.807-2.46-1.989a.591.591 0 0 1-.112-.84l1.176-1.452a.593.593 0 0 1 .863-.1l4.569 3.69a.608.608 0 0 1 .065.843c-1.621 2.01-3.259 4.089-4.879 6.1a.832.832 0 0 1-.527.238 16.127 16.127 0 0 1-7.565-3.368 11.561 11.561 0 0 1-1.757-16.312A11.614 11.614 0 0 1 0 0" class="cls-1" data-name="Path 88"/>
        </g>
        <g id="Group_87" data-name="Group 87" transform="translate(1348.265 703.79)">
            <path id="Path_89" d="M0 0a.615.615 0 0 1 .842-.21L8.368 4.3a6.956 6.956 0 0 1 2.483 9.532 7.155 7.155 0 0 1-7.457 3.164l-.419 9.3a.608.608 0 0 1-.95.518l-2.158-1.296A.6.6 0 0 1-.427 25l.71-9.535-4.177-2.5-4.225 7.053a.631.631 0 0 1-.84.21l-1.8-1.074a.617.617 0 0 1-.211-.844zm2.512 13.571a4 4 0 0 0 5.428-1.407 3.956 3.956 0 0 0-1.4-5.317L1.614 3.9l-4.028 6.725z" class="cls-1" data-name="Path 89"/>
        </g>
        <g id="Group_88" data-name="Group 88" transform="translate(1357.359 733.473)">
            <path id="Path_90" d="M0 0l17.657-16.039a.76.76 0 0 1 .646-.108l.3.126a.758.758 0 0 1 .364.542l.48 23.824a.57.57 0 0 1-.833.556L16.742 8.1a.75.75 0 0 1-.492-.735l-.094-4.848-9.691-4.162C5.286-.536 4.092.532 2.916 1.638a.819.819 0 0 1-.874.154L.175.991A.573.573 0 0 1 0 0m16.123-.518l-.161-9.682-.147-.063L8.714-3.7z" class="cls-1" data-name="Path 90"/>
        </g>
        <g id="Group_89" data-name="Group 89" transform="translate(1385.709 722.829)">
            <path id="Path_91" d="M0 0a.573.573 0 0 1 .76-.658l2.2.634a.629.629 0 0 1 .431.493l2.423 17.313.186.052 11.229-13.4a.587.587 0 0 1 .625-.189l2.2.63a.568.568 0 0 1 .3.956L4.843 23.981a.613.613 0 0 1-.625.189l-.312-.087a.657.657 0 0 1-.428-.494z" class="cls-1" data-name="Path 91"/>
        </g>
        <g id="Group_90" data-name="Group 90" transform="translate(1411.23 729.308)">
            <path id="Path_92" d="M0 0a.614.614 0 0 1 .7-.514l12.75 1.963a.614.614 0 0 1 .513.7l-.275 1.786a.612.612 0 0 1-.7.511L2.914 2.895l-1 6.5 8.511 1.313a.635.635 0 0 1 .513.7l-.274 1.792a.614.614 0 0 1-.7.511L1.453 12.4.4 19.252 10.469 20.8a.615.615 0 0 1 .513.7l-.269 1.75a.61.61 0 0 1-.7.511L-2.737 21.8a.61.61 0 0 1-.513-.7z" class="cls-1" data-name="Path 92"/>
        </g>
        <g id="Group_91" data-name="Group 91" transform="translate(1431.97 731.944)">
            <path id="Path_93" d="M0 0a.613.613 0 0 1 .637-.588L2.765-.5a.633.633 0 0 1 .587.637L2.58 19.091l8.737.357a.611.611 0 0 1 .588.634l-.072 1.774a.611.611 0 0 1-.639.588l-11.476-.465a.61.61 0 0 1-.586-.637z" class="cls-1" data-name="Path 93"/>
        </g>
        <g id="Group_92" data-name="Group 92" transform="translate(1449.892 751.049)">
            <path id="Path_94" d="M0 0c.261-.437.486-.938.749-1.375a.729.729 0 0 1 1.076-.33c.2.147 2.82 2.045 5.3 1.88 2.223-.147 3.549-1.592 3.441-3.234-.13-1.932-1.885-3.041-5.158-4.155C2.032-8.38-.656-9.917-.9-13.651c-.167-2.514 1.538-6.084 6.656-6.423a10.93 10.93 0 0 1 6.082 1.508.768.768 0 0 1 .266 1.082c-.231.4-.492.872-.725 1.274a.763.763 0 0 1-1.106.4 9.906 9.906 0 0 0-4.452-1.323c-2.7.178-3.525 1.946-3.445 3.136.119 1.834 1.61 2.871 4.356 3.788 3.835 1.267 7.138 2.824 7.4 6.755.221 3.347-2.593 6.28-6.778 6.557A10.469 10.469 0 0 1 .259 1.019C-.046.777-.287.567 0 0" class="cls-1" data-name="Path 94"/>
        </g>
        <g id="Group_93" data-name="Group 93" transform="translate(1469.27 730.579)">
            <path id="Path_95" d="M0 0a.615.615 0 0 1 .492-.714l12.692-2.339a.613.613 0 0 1 .714.49l.328 1.779a.614.614 0 0 1-.492.714L3.707 1.778 4.9 8.25l8.473-1.561a.635.635 0 0 1 .714.49l.327 1.778a.612.612 0 0 1-.491.714L5.45 11.232l1.26 6.823 10.027-1.848a.611.611 0 0 1 .714.493l.32 1.743a.61.61 0 0 1-.49.714L4.589 21.5a.609.609 0 0 1-.714-.5z" class="cls-1" data-name="Path 95"/>
        </g>
        <g id="Group_94" data-name="Group 94" transform="translate(1493.895 744.591)">
            <path id="Path_96" d="M0 0c.154-.486.257-1.025.411-1.512a.735.735 0 0 1 .975-.571c.231.1 3.214 1.344 5.589.613 2.128-.655 3.087-2.366 2.6-3.938C9.01-7.26 7.046-7.939 3.6-8.268.051-8.625-2.921-9.5-4.018-13.081c-.741-2.408.1-6.276 5-7.781a10.9 10.9 0 0 1 6.265.067.763.763 0 0 1 .506.99c-.133.448-.278.963-.411 1.41a.763.763 0 0 1-.984.641 9.9 9.9 0 0 0-4.64-.262c-2.59.794-2.982 2.705-2.632 3.847.541 1.757 2.23 2.419 5.112 2.681 4.024.35 7.6 1.11 8.755 4.872.987 3.21-1.078 6.711-5.086 7.946A10.454 10.454 0 0 1 .487.928C.133.767-.149.616 0 0" class="cls-1" data-name="Path 96"/>
        </g>
        <g id="Group_95" data-name="Group 95" transform="translate(1508.01 720.256)">
            <path id="Path_97" d="M0 0a.616.616 0 0 1 .313-.809l6.6-2.929C10.482-5.321 14.094-4.1 15.468-1a6.208 6.208 0 0 1-.985 6.048C16.333 5 19.1 5.5 20.3 8.212c1.465 3.3-.185 6.892-3.9 8.541l-6.928 3.073a.609.609 0 0 1-.809-.308zm10.716 5.3A3.236 3.236 0 0 0 12.353.8 3.116 3.116 0 0 0 7.969-.889L3.989.878l2.748 6.189zm4.449 8.751a3.433 3.433 0 0 0 1.759-4.621c-.8-1.8-3.085-2.338-5-1.488L7.885 9.734l2.8 6.308z" class="cls-1" data-name="Path 97"/>
        </g>
        <g id="Group_96" data-name="Group 96" transform="translate(1537.255 718.149)">
            <path id="Path_98" d="M0 0l-12.011-5.366a.6.6 0 0 1-.037-1.068L-10-7.662a.644.644 0 0 1 .593-.014l9.234 4.057.782-10.057A.693.693 0 0 1 .9-14.19l2.076-1.243a.6.6 0 0 1 .922.539L2.862-1.75l5.285 8.828a.635.635 0 0 1-.208.84L6.112 9.01a.614.614 0 0 1-.842-.21z" class="cls-1" data-name="Path 98"/>
        </g>
        <g id="Group_97" data-name="Group 97" transform="translate(1545.037 700.041)">
            <path id="Path_99" d="M0 0a.613.613 0 0 1 .1-.861L7-6.279a6.963 6.963 0 0 1 9.8 1.085 7.16 7.16 0 0 1 .291 8.1l8.537 3.717a.607.607 0 0 1 .147 1.071L23.8 9.251a.593.593 0 0 1-.586.088l-8.66-4.071-3.831 3.007 5.077 6.469a.633.633 0 0 1-.1.861l-1.651 1.3a.616.616 0 0 1-.861-.1zm13.576 2.506A4.006 4.006 0 0 0 14.2-3.07a3.954 3.954 0 0 0-5.468-.588L4.218-.112l4.843 6.164z" class="cls-1" data-name="Path 99"/>
        </g>
        <g id="Group_98" data-name="Group 98" transform="translate(1561.448 678.29)">
            <path id="Path_100" d="M0 0a3.553 3.553 0 0 1-.061-5.065A3.574 3.574 0 0 1 5-5.125 3.574 3.574 0 0 1 5.062-.06 3.553 3.553 0 0 1 0 0m3.695-3.788a1.725 1.725 0 0 0-2.417.032 1.763 1.763 0 0 0-.039 2.485A1.824 1.824 0 0 0 3.793-1.3a1.812 1.812 0 0 0-.1-2.489m10.844 27.72L5.926 1.684a.756.756 0 0 1 .13-.641L6.28.812a.753.753 0 0 1 .637-.144L29.319 8.8a.568.568 0 0 1 .217.977l-1.419 1.453a.757.757 0 0 1-.865.195l-4.559-1.663-7.367 7.544c.611 1.5 1.176 3 1.786 4.5a.808.808 0 0 1-.172.868l-1.419 1.453a.568.568 0 0 1-.982-.193M19.852 8.7L10.76 5.366l-.112.115 3.574 8.989z" class="cls-1" data-name="Path 100"/>
        </g>
    </g>
</svg>
