<svg xmlns="http://www.w3.org/2000/svg" width="397.789" height="382.09" viewBox="0 0 397.789 382.09">
    <defs>
        <style>
            .cls-1{fill:#fff}
        </style>
    </defs>
    <g id="Group_99" data-name="Group 99" transform="translate(-281.106 -370.792)">
        <g id="Group_1" data-name="Group 1" transform="translate(518.908 589.628)">
            <path id="Path_3" d="M0 0c-10.319 0-25.7-5.525-31.361-22.012a89.846 89.846 0 0 1-5-31.563.9.9 0 0 1 .37-.666.864.864 0 0 1 .745-.142 29.088 29.088 0 0 0 3.223.346c5.4.431 15.448 1.236 25.4 5.571 12.285 5.352 20.467 14.4 24.319 26.892a17.592 17.592 0 0 1-1.9 14.122C13.189-3.416 8.83-.9 3.187-.19A25.313 25.313 0 0 1 0 0m-34.612-52.468a90.23 90.23 0 0 0 4.945 29.875C-23.731-5.308-6.5-.765 2.963-1.969c5.174-.655 8.984-2.831 11.324-6.454a15.726 15.726 0 0 0 1.692-12.623C7.332-49.091-21.366-51.387-32.17-52.251a84.457 84.457 0 0 1-2.442-.217" class="cls-1" data-name="Path 3"/>
        </g>
        <g id="Group_2" data-name="Group 2" transform="translate(523.149 542.466)">
            <path id="Path_4" d="M0 0a47.808 47.808 0 0 1-9.493-.964 260.916 260.916 0 0 0-30.278-4.494.9.9 0 0 1-.833-.956.9.9 0 0 1 .871-.835c.452-.513 1.219-1.582 2.158-2.892 7.514-10.476 27.469-38.319 57.385-31.226 3.641.861 8.476 4.148 11.074 9.553 1.7 3.542 3.026 9.256-.336 16.355C26.57-7.062 14.716 0 0 0m-37.589-7.069A281.191 281.191 0 0 1-9.136-2.721C8.943.94 24.419-6.708 28.927-16.226c3.061-6.461 1.875-11.621.341-14.814-2.341-4.87-6.645-7.821-9.871-8.584C-9.351-46.429-28.8-19.306-36.118-9.1c-.58.808-1.065 1.486-1.471 2.028" class="cls-1" data-name="Path 4"/>
        </g>
        <g id="Group_3" data-name="Group 3" transform="translate(452.2 542.086)">
            <path id="Path_5" d="M0 0c-12.822 0-26.841-3.581-36.757-16.608-2.269-2.977-3.917-8.588-2.494-14.413.932-3.816 3.535-9.072 10.641-12.422 10.144-4.787 27.938-.779 40.14 14.213A261.8 261.8 0 0 0 32.074-6.539a.9.9 0 0 1 .037 1.266.894.894 0 0 1-1.2.092c-.674.111-1.946.45-3.506.867C21.583-2.76 11.252 0 0 0m-19.178-43.588a20.366 20.366 0 0 0-8.669 1.765c-6.463 3.049-8.823 7.789-9.663 11.228-1.283 5.25.17 10.263 2.177 12.9C-17.439 5.811 14.8-2.8 26.942-6.047c.961-.256 1.766-.471 2.424-.632A281.76 281.76 0 0 1 10.141-28.1C1.514-38.7-9.944-43.588-19.178-43.588" class="cls-1" data-name="Path 5"/>
        </g>
        <g id="Group_4" data-name="Group 4" transform="translate(451.446 582.4)">
            <path id="Path_6" d="M0 0a15.133 15.133 0 0 1-9.169-3.238 14.847 14.847 0 0 1-5.576-12C-14.862-24.277-6-35.973 9.04-39.9a220.768 220.768 0 0 0 23.02-7.216.905.905 0 0 1 .954.189.9.9 0 0 1 .22.948 27.265 27.265 0 0 0-.584 3C30.933-32.783 26.375-5.7 2.293-.238A10.441 10.441 0 0 1 0 0m31.153-44.855c-3.166 1.165-10.938 3.889-21.662 6.689C-4.7-34.461-13.062-23.61-12.953-15.262A13.118 13.118 0 0 0-8.06-4.645a12.624 12.624 0 0 0 9.96 2.66c22.91-5.2 27.324-31.419 28.985-41.292.1-.6.189-1.125.271-1.578" class="cls-1" data-name="Path 6"/>
        </g>
        <g id="Group_5" data-name="Group 5" transform="translate(483.44 537.009)">
            <path id="Path_7" d="M0 0h-.074a.9.9 0 0 1-.645-.36 35.963 35.963 0 0 0-2.823-2.855c-4.9-4.692-14.006-13.424-20.338-25.374-7.821-14.761-8.81-29.65-2.935-44.252 1.85-4.6 6.317-8.541 11.657-10.289C-10.8-84.555-3.9-85.2 4.22-80.151c6.027 3.742 11.447 10.9 14.5 19.151a42.512 42.512 0 0 1 .18 29.647C11.383-10.8 1.059-.672.623-.252A.894.894 0 0 1 0 0m-8.762-82.354a18.758 18.758 0 0 0-5.838.927c-4.852 1.587-8.9 5.135-10.552 9.255C-38.439-39.146-12.187-13.982-2.3-4.51c1 .961 1.778 1.71 2.331 2.287 2.4-2.588 10.892-12.536 17.187-29.746 7.4-20.2-3.346-40.081-13.944-46.659a22.619 22.619 0 0 0-12.036-3.726" class="cls-1" data-name="Path 7"/>
        </g>
        <g id="Group_6" data-name="Group 6" transform="translate(412.175 649.612)">
            <path id="Path_8" d="M0 0a.9.9 0 0 1-.844-.593A.9.9 0 0 1-.3-1.74c.377-.136 38.125-13.96 56.384-46.954 18.287-33.04 14.074-64.032 14.028-64.342a.9.9 0 0 1 .76-1.015.916.916 0 0 1 1.015.76c.045.315 4.34 31.9-14.234 65.465C39.059-14.231.688-.191.3-.053A.91.91 0 0 1 0 0" class="cls-1" data-name="Path 8"/>
        </g>
        <g id="Group_7" data-name="Group 7" transform="translate(307.156 454.771)">
            <path id="Path_9" d="M0 0a.648.648 0 0 1-.18-.9l4.228-6.35c2.286-3.428 6.193-4.382 9.17-2.4a6.547 6.547 0 0 1 2.543 5.95c1.624-1.087 4.372-2.2 6.98-.466C25.916-2.05 26.476 2.088 24.1 5.66l-4.44 6.659a.646.646 0 0 1-.9.181zm12.552-1.335a3.415 3.415 0 0 0-1.087-4.939A3.292 3.292 0 0 0 6.6-5.3L4.05-1.476 10 2.49zm8.917 5.285a3.629 3.629 0 0 0-1.05-5.119c-1.728-1.152-4.071-.338-5.3 1.5l-2.585 3.887L18.6 8.259z" class="cls-1" data-name="Path 9"/>
        </g>
        <g id="Group_8" data-name="Group 8" transform="translate(319.605 437.023)">
            <path id="Path_10" d="M0 0a.67.67 0 0 1-.107-.91L1.1-2.431a.67.67 0 0 1 .909-.107l17.675 14a.667.667 0 0 1 .1.907l-1.2 1.522a.668.668 0 0 1-.909.105z" class="cls-1" data-name="Path 10"/>
        </g>
        <g id="Group_9" data-name="Group 9" transform="translate(336.373 431.462)">
            <path id="Path_11" d="M0 0a7.047 7.047 0 0 1 9.9-.271 7.058 7.058 0 0 1 .66 9.927 7.06 7.06 0 0 1-9.944.227A7.049 7.049 0 0 1 0 0m8.4 7.678a4.052 4.052 0 0 0-.546-5.713A4.006 4.006 0 0 0 2.188 2a4.007 4.007 0 0 0 .469 5.646 4.055 4.055 0 0 0 5.74.032" class="cls-1" data-name="Path 11"/>
        </g>
        <g id="Group_10" data-name="Group 10" transform="translate(345.17 423.408)">
            <path id="Path_12" d="M0 0a.671.671 0 0 1 .072-.912l.728-.62a.594.594 0 0 1 .7-.068l1.04.639A6.334 6.334 0 0 1 4.72-5.33a5.057 5.057 0 0 1 4.757-1.193 7.581 7.581 0 0 1 2.34-4.864c3.161-2.7 6.175-1.421 8.475 1.273l4.443 5.206a.645.645 0 0 1-.071.908l-1.451 1.243a.648.648 0 0 1-.913-.073l-4.532-5.309c-1.393-1.632-2.939-1.923-4.337-.729a4.9 4.9 0 0 0-1.586 3.546 9.614 9.614 0 0 1 1.141 1.176l4.575 5.362a.672.672 0 0 1-.071.912L16.116 3.3a.643.643 0 0 1-.912-.072l-4.533-5.309C9.257-3.74 7.732-4 6.281-2.766A3.866 3.866 0 0 0 5.044.977L10.44 7.3a.671.671 0 0 1-.072.912L8.917 9.447a.668.668 0 0 1-.912-.072z" class="cls-1" data-name="Path 12"/>
        </g>
        <g id="Group_11" data-name="Group 11" transform="translate(372.322 415.702)">
            <path id="Path_13" d="M0 0l-.152-1.5a.588.588 0 0 1 .607-.62 7.063 7.063 0 0 0 3.121-1.043c.845-.572 1.153-1.272.731-1.895-.514-.76-1.384-.707-3.411-.36-2.263.423-4.456.344-5.718-1.518-.954-1.409-.945-3.884 1.764-5.718a7.615 7.615 0 0 1 3.919-1.379.76.76 0 0 1 .779.665l.143 1.3a.72.72 0 0 1-.582.723 7.764 7.764 0 0 0-2.713.973c-.959.649-.982 1.283-.7 1.706.5.732 1.411.566 2.837.3 2.675-.49 4.956-.761 6.39 1.355C8.2-5.265 7.583-2.587 5.076-.887A7.143 7.143 0 0 1 .57.478.574.574 0 0 1 0 0" class="cls-1" data-name="Path 13"/>
        </g>
        <g id="Group_12" data-name="Group 12" transform="translate(379.804 400.073)">
            <path id="Path_14" d="M0 0l-1.237.714a.647.647 0 0 1-.884-.236l-.767-1.329a.625.625 0 0 1 .236-.881l1.24-.716L-3.3-5.719a.672.672 0 0 1 .236-.886l1.663-1a.642.642 0 0 1 .856.252l1.906 3.3 3.006-1.731a.626.626 0 0 1 .883.238l.765 1.326a.645.645 0 0 1-.238.885l-3 1.735 3.366 5.839c.576 1 1.064.957 1.623.634a5.572 5.572 0 0 0 1.492-1.568.509.509 0 0 1 .832-.126l1.279.99a.565.565 0 0 1 .144.861 10.436 10.436 0 0 1-2.941 2.876c-2.329 1.345-3.824.32-5.031-1.773z" class="cls-1" data-name="Path 14"/>
        </g>
        <g id="Group_13" data-name="Group 13" transform="translate(394.163 388.838)">
            <path id="Path_15" d="M0 0a6.13 6.13 0 0 1 8.362 2.995 8.4 8.4 0 0 1 .335.859.629.629 0 0 1-.308.786L.03 8.618a3.944 3.944 0 0 0 5.1 1.609 5.863 5.863 0 0 0 2.312-2.2c.264-.39.421-.616.812-.426l1.417.758c.335.144.541.347.319.828a7.814 7.814 0 0 1-3.817 3.7c-3.719 1.771-7.566.023-9.252-3.513A6.843 6.843 0 0 1 0 0m5.224 3.772a3.22 3.22 0 0 0-4.13-1.39A3.444 3.444 0 0 0-.737 6.61z" class="cls-1" data-name="Path 15"/>
        </g>
        <g id="Group_14" data-name="Group 14" transform="translate(404.403 385.388)">
            <path id="Path_16" d="M0 0a.664.664 0 0 1 .371-.833l.922-.354A.647.647 0 0 1 2-.948L2.767 0a4.845 4.845 0 0 1 3.014-3.271c1.206-.462 2.791-.705 2.769.287l-.165 1.85a.58.58 0 0 1-.655.578 3.11 3.11 0 0 0-1.163.192A3.584 3.584 0 0 0 4.3 2.29l3.092 8.071c.209.543-.119.739-.626.935l-1.526.583a.668.668 0 0 1-.835-.371z" class="cls-1" data-name="Path 16"/>
        </g>
        <g id="Group_15" data-name="Group 15" transform="translate(429.945 376.148)">
            <path id="Path_17" d="M0 0a7.043 7.043 0 0 1 8.368 5.286 7.055 7.055 0 0 1-4.983 8.607A7.057 7.057 0 0 1-5 8.542 7.045 7.045 0 0 1 0 0m2.694 11.051A4.058 4.058 0 0 0 5.424 6 4.007 4.007 0 0 0 .7 2.877a4 4 0 0 0-2.751 4.948 4.056 4.056 0 0 0 4.745 3.226" class="cls-1" data-name="Path 17"/>
        </g>
        <g id="Group_16" data-name="Group 16" transform="translate(443.793 382.651)">
            <path id="Path_18" d="M0 0a5.452 5.452 0 0 1-1.526-3.113A5.835 5.835 0 0 1 3.4-9.864l5.9-.868a.629.629 0 0 1 .735.548l.123.842c.034.236-.055.558-.286.626l-1.78.779a4.56 4.56 0 0 1 1.982 3.392 5.566 5.566 0 0 1-4.925 6.334 10.035 10.035 0 0 1-3.01-.107A1.873 1.873 0 0 0 1 3.536 1.452 1.452 0 0 0 2.821 4.68L7.4 4.006c2.934-.432 5.524.8 5.954 3.735C13.8 10.706 11.486 13.73 7 14.39c-4.75.7-7.027-1.444-7.351-3.633A3.765 3.765 0 0 1 1.174 7.3l-.014-.1a3.52 3.52 0 0 1-2.989-3A4.7 4.7 0 0 1 0 0m7.176-4.326a2.868 2.868 0 0 0-3.285-2.683 2.954 2.954 0 0 0-2.51 3.537A2.955 2.955 0 0 0 4.8-.808a2.872 2.872 0 0 0 2.376-3.518m-.611 15.96c2.055-.3 3.688-1.611 3.448-3.228-.079-.539-.613-1.87-2.813-1.549-.977.144-1.989.294-2.955.5-.192.1-1.764.879-1.541 2.395.2 1.382 1.8 2.181 3.857 1.878" class="cls-1" data-name="Path 18"/>
        </g>
        <g id="Group_17" data-name="Group 17" transform="translate(468.024 380.142)">
            <path id="Path_19" d="M0 0a5.481 5.481 0 0 1-1.082-3.3 5.834 5.834 0 0 1 5.809-6l5.961-.048a.625.625 0 0 1 .651.641l.008.851c0 .237-.132.546-.37.582l-1.869.527A4.549 4.549 0 0 1 10.6-3.119a5.564 5.564 0 0 1-5.744 5.6A10.072 10.072 0 0 1 1.89 1.96 1.867 1.867 0 0 0 .508 3.64a1.454 1.454 0 0 0 1.645 1.383l4.633-.039c2.962-.024 5.357 1.558 5.381 4.521.027 3-2.677 5.674-7.207 5.711-4.8.038-6.761-2.4-6.78-4.61A3.75 3.75 0 0 1 .163 7.389v-.1A3.514 3.514 0 0 1-2.384 3.9 4.691 4.691 0 0 1 0 0m4.9 12.424c2.077-.017 3.873-1.087 3.861-2.721-.005-.546-.357-1.939-2.571-1.922-.986.009-2.009.017-2.995.093-.2.072-1.867.628-1.857 2.161.013 1.4 1.484 2.4 3.562 2.389M7.706-3.3A2.87 2.87 0 0 0 4.82-6.409 2.954 2.954 0 0 0 1.848-3.25 2.953 2.953 0 0 0 4.871-.144 2.867 2.867 0 0 0 7.706-3.3" class="cls-1" data-name="Path 19"/>
        </g>
        <g id="Group_18" data-name="Group 18" transform="translate(488.016 376.723)">
            <path id="Path_20" d="M0 0a9.856 9.856 0 0 1 2.648.623C2.856-1.51 2.517-2.393.784-2.532a14.462 14.462 0 0 0-3.851.3c-.412.07-.629-.222-.7-.6l-.17-1.277a.611.611 0 0 1 .506-.744 14 14 0 0 1 4.744-.4c4.344.35 4.537 3.031 4.264 6.423L4.993 8.4a.67.67 0 0 1-.7.591l-.949-.075c-.3-.024-.429-.171-.539-.521l-.266-.944a5.879 5.879 0 0 1-4.31 1.389 4.23 4.23 0 0 1-4.012-4.9C-5.583 1.461-3.46-.278 0 0m-.931 6.483a4.028 4.028 0 0 0 3.189-1.451l.175-2.172A5.114 5.114 0 0 0 .1 2.126C-1.526 2-2.715 2.753-2.828 4.143a2.049 2.049 0 0 0 1.9 2.34" class="cls-1" data-name="Path 20"/>
        </g>
        <g id="Group_19" data-name="Group 19" transform="translate(497.71 373.366)">
            <path id="Path_21" d="M0 0c-.128-.471.128-.773.634-.689l1.979.331a.626.626 0 0 1 .543.47L5.328 8.62l.033.007 4.949-7.321c.23-.342.6-.28.968-.219l1.546.259a.5.5 0 0 1 .376.854L5.142 13.871a.608.608 0 0 1-.628.241l-.166-.028a.607.607 0 0 1-.517-.432z" class="cls-1" data-name="Path 21"/>
        </g>
        <g id="Group_20" data-name="Group 20" transform="translate(520.61 376.778)">
            <path id="Path_22" d="M0 0a6.133 6.133 0 0 1 4.5 7.664 8.246 8.246 0 0 1-.3.874.625.625 0 0 1-.738.407l-8.97-2.306a3.945 3.945 0 0 0 2.886 4.5 5.787 5.787 0 0 0 3.18-.2c.455-.127.722-.2.9.2l.6 1.491a.529.529 0 0 1-.287.841 7.843 7.843 0 0 1-5.305.393c-3.99-1.027-5.823-4.839-4.848-8.634A6.845 6.845 0 0 1 0 0m1.591 6.249A3.222 3.222 0 0 0-.688 2.531 3.446 3.446 0 0 0-4.808 4.6z" class="cls-1" data-name="Path 22"/>
        </g>
        <g id="Group_21" data-name="Group 21" transform="translate(530.712 380.707)">
            <path id="Path_23" d="M0 0a.671.671 0 0 1 .824-.4l.933.32a.648.648 0 0 1 .394.639L2.13 1.773A4.854 4.854 0 0 1 6.541 1.2c1.223.419 2.6 1.25 1.942 2L7.171 4.507a.581.581 0 0 1-.874.026 3.1 3.1 0 0 0-1.018-.6 3.58 3.58 0 0 0-3.44.585L-.966 12.7c-.187.55-.565.492-1.08.315l-1.547-.528a.672.672 0 0 1-.4-.824z" class="cls-1" data-name="Path 23"/>
        </g>
        <g id="Group_22" data-name="Group 22" transform="translate(550.33 388.29)">
            <path id="Path_24" d="M0 0a.673.673 0 0 1 .859-.316L2.622.5a.67.67 0 0 1 .318.859l-5.163 11.2a.671.671 0 0 1-.857.319l-1.764-.814a.668.668 0 0 1-.319-.859zm3.084-7.58a1.954 1.954 0 0 1 2.6-1.011 1.989 1.989 0 0 1 .985 2.665 1.984 1.984 0 0 1-2.651.952 1.947 1.947 0 0 1-.934-2.606" class="cls-1" data-name="Path 24"/>
        </g>
        <g id="Group_23" data-name="Group 23" transform="translate(559.297 405.285)">
            <path id="Path_25" d="M0 0l1.295-.775a.587.587 0 0 1 .819.288 7.042 7.042 0 0 0 2.265 2.381c.88.524 1.643.5 2.027-.141.47-.789.056-1.553-1.12-3.243-1.343-1.869-2.2-3.887-1.054-5.817.873-1.464 3.117-2.5 5.926-.832a7.634 7.634 0 0 1 2.911 2.962.759.759 0 0 1-.272.989l-1.116.681a.717.717 0 0 1-.9-.22 7.829 7.829 0 0 0-2.035-2.042c-1-.593-1.579-.345-1.838.093-.453.761.086 1.519.931 2.7C9.418-.772 10.63 1.179 9.325 3.373c-1.08 1.814-3.765 2.4-6.367.845A7.128 7.128 0 0 1-.189.719.574.574 0 0 1 0 0" class="cls-1" data-name="Path 25"/>
        </g>
        <g id="Group_24" data-name="Group 24" transform="translate(582.517 405.673)">
            <path id="Path_26" d="M0 0a6.129 6.129 0 0 1 1.454 8.762 7.921 7.921 0 0 1-.589.708.625.625 0 0 1-.835.118l-7.544-5.366a3.941 3.941 0 0 0 1.08 5.236 5.8 5.8 0 0 0 3.04.952c.473.042.744.07.769.5l.027 1.607c.037.36-.04.641-.57.683a7.829 7.829 0 0 1-5.091-1.53 6.808 6.808 0 0 1-1.432-9.79A6.843 6.843 0 0 1 0 0m-.749 6.4a3.222 3.222 0 0 0-.8-4.284 3.444 3.444 0 0 0-4.586.457z" class="cls-1" data-name="Path 26"/>
        </g>
        <g id="Group_25" data-name="Group 25" transform="translate(590.72 413.001)">
            <path id="Path_27" d="M0 0a.673.673 0 0 1 .914-.065l.745.648a.552.552 0 0 1 .144.665l-.45 1.143A6.962 6.962 0 0 1 6.2 4.075c3.141 2.721 2.378 5.938.057 8.614l-4.481 5.172a.669.669 0 0 1-.911.064L-.6 16.653a.647.647 0 0 1-.065-.912l4.573-5.275c1.429-1.647 1.413-3.239.076-4.4a4.508 4.508 0 0 0-4.2-.935l-5.444 6.28c-.291.336-.578.356-1.013-.022l-1.339-1.162a.668.668 0 0 1-.065-.913z" class="cls-1" data-name="Path 27"/>
        </g>
        <g id="Group_26" data-name="Group 26" transform="translate(603.486 427.53)">
            <path id="Path_28" d="M0 0l-.994-1.025a.65.65 0 0 1 .012-.918L.119-3.01a.624.624 0 0 1 .913.01l1 1.025 2.709-2.631a.67.67 0 0 1 .915.014l1.376 1.37A.638.638 0 0 1 7-2.331L4.26.326l2.422 2.492a.625.625 0 0 1-.016.915L5.569 4.8a.648.648 0 0 1-.914-.012L2.233 2.3-2.6 6.994c-.83.808-.669 1.267-.218 1.733a5.521 5.521 0 0 0 1.883 1.06.511.511 0 0 1 .326.777l-.648 1.484a.563.563 0 0 1-.8.35 10.421 10.421 0 0 1-3.507-2.147c-1.876-1.931-1.248-3.63.485-5.315z" class="cls-1" data-name="Path 28"/>
        </g>
        <g id="Group_27" data-name="Group 27" transform="translate(613.326 434.821)">
            <path id="Path_29" d="M0 0a.668.668 0 0 1 .912.077l.637.753a.657.657 0 0 1 .009.753l-.644 1.03a4.86 4.86 0 0 1 4.081 1.771c.835.989 1.586 2.405.641 2.712l-1.8.453a.581.581 0 0 1-.761-.425 3.076 3.076 0 0 0-.566-1.04A3.593 3.593 0 0 0-.746 4.818l-6.61 5.582c-.441.372-.735.131-1.085-.285L-9.5 8.865a.671.671 0 0 1 .076-.912z" class="cls-1" data-name="Path 29"/>
        </g>
        <g id="Group_28" data-name="Group 28" transform="translate(621.324 444.452)">
            <path id="Path_30" d="M0 0a.666.666 0 0 1 .9.152l1.127 1.582a.672.672 0 0 1-.152.9l-5.688 4.05c-1.805 1.285-2.164 2.836-1.156 4.251a3.628 3.628 0 0 0 3.784 1.444l6.633-4.718c.445-.317.686-.154.961.234l1.028 1.442a.671.671 0 0 1-.153.9l-10.046 7.151a.669.669 0 0 1-.9-.15l-.551-.778a.649.649 0 0 1 .087-.817l.606-.849a6.163 6.163 0 0 1-4.132-2.578c-2.368-3.328-.841-6.173 2.044-8.227z" class="cls-1" data-name="Path 30"/>
        </g>
        <g id="Group_29" data-name="Group 29" transform="translate(632.054 459.684)">
            <path id="Path_31" d="M0 0a.662.662 0 0 1 .873.263l.452.838a.594.594 0 0 1-.083.7L.4 2.683a6.309 6.309 0 0 1 3.81 3.054 5.044 5.044 0 0 1 .163 4.9 7.582 7.582 0 0 1 4.26 3.315c1.969 3.658.084 6.336-3.033 8.014l-6.032 3.247a.644.644 0 0 1-.875-.264l-.9-1.678a.648.648 0 0 1 .262-.877l6.145-3.31C6.089 18.069 6.7 16.618 5.828 15A4.912 4.912 0 0 0 2.7 12.7a9.682 9.682 0 0 1-1.391.867l-6.209 3.34a.673.673 0 0 1-.878-.264l-.856-1.59a.649.649 0 0 1 .264-.877l6.149-3.307C1.7 9.836 2.277 8.4 1.372 6.723a3.863 3.863 0 0 0-3.4-2L-9.341 8.66a.668.668 0 0 1-.875-.263l-.9-1.68a.668.668 0 0 1 .263-.877z" class="cls-1" data-name="Path 31"/>
        </g>
        <g id="Group_30" data-name="Group 30" transform="translate(645.102 498.002)">
            <path id="Path_32" d="M0 0a9.782 9.782 0 0 1 .488 2.676C2.527 2.011 3.2 1.348 2.636-.294A14.535 14.535 0 0 0 .815-3.7c-.229-.353-.049-.666.274-.885l1.1-.667a.61.61 0 0 1 .884.165A14.071 14.071 0 0 1 5.342-.9c1.415 4.12-.961 5.369-4.18 6.477L-5.7 7.934a.67.67 0 0 1-.821-.4l-.311-.9c-.1-.287-.014-.462.262-.7l.758-.621a5.874 5.874 0 0 1-3-3.4 4.229 4.229 0 0 1 2.888-5.637C-3.576-4.533-1.131-3.285 0 0m-6.315 1.74a4.029 4.029 0 0 0 2.606 2.342l2.06-.707A5.108 5.108 0 0 0-1.908.943C-2.44-.6-3.609-1.388-4.93-.935A2.05 2.05 0 0 0-6.315 1.74" class="cls-1" data-name="Path 32"/>
        </g>
        <g id="Group_31" data-name="Group 31" transform="translate(652.054 505.498)">
            <path id="Path_33" d="M0 0a.506.506 0 0 1 .887.3l.492 1.948a.626.626 0 0 1-.213.686l-6.924 5.409.01.032 8.693 1.6c.4.073.5.436.588.8l.384 1.519c.126.495-.154.777-.634.688l-13.926-2.7a.6.6 0 0 1-.472-.478l-.042-.165a.6.6 0 0 1 .187-.645z" class="cls-1" data-name="Path 33"/>
        </g>
        <g id="Group_32" data-name="Group 32" transform="translate(645.564 529.85)">
            <path id="Path_34" d="M0 0l23.8 8.228a.783.783 0 0 1 .427.539l.034.339a.8.8 0 0 1-.319.611L2.119 22.228a.6.6 0 0 1-.936-.493L.98 19.6a.8.8 0 0 1 .434-.829l4.44-2.543L4.8 5.149c-1.624-.53-3.217-1.1-4.839-1.624A.852.852 0 0 1-.621 2.8L-.828.658A.6.6 0 0 1 0 0m8.646 14.663l8.887-5.053-.017-.17-9.677-3.248zM29.193 4.6a3.779 3.779 0 1 1-3.4 4.12 3.747 3.747 0 0 1 3.4-4.12m.532 5.556a1.814 1.814 0 0 0 1.624-1.967 1.862 1.862 0 0 0-1.978-1.726 1.922 1.922 0 0 0-1.715 2.079 1.9 1.9 0 0 0 2.069 1.614" class="cls-1" data-name="Path 34"/>
        </g>
        <g id="Group_33" data-name="Group 33" transform="translate(659.59 554.717)">
            <path id="Path_35" d="M0 0a.669.669 0 0 1 .634.66l-.021.987a.553.553 0 0 1-.413.537l-1.169.385A6.967 6.967 0 0 1 .839 7.375C.754 11.528-2.2 13-5.746 12.929l-6.845-.14a.673.673 0 0 1-.635-.66l.042-1.941a.646.646 0 0 1 .66-.634l6.98.142c2.177.046 3.39-.986 3.428-2.757a4.507 4.507 0 0 0-1.967-3.82l-8.306-.17c-.445-.009-.643-.217-.632-.795l.037-1.771a.667.667 0 0 1 .659-.633z" class="cls-1" data-name="Path 35"/>
        </g>
        <g id="Group_34" data-name="Group 34" transform="translate(659.2 579.19)">
            <path id="Path_36" d="M0 0a8.177 8.177 0 0 1-1.136 3.156L8.77 4.351a.67.67 0 0 1 .567.719L9.1 7.031a.668.668 0 0 1-.717.565L-14 4.9a.669.669 0 0 1-.564-.719l.121-1.015c.037-.305.3-.48.649-.54l1.014-.152a6.084 6.084 0 0 1-1.378-4.522c.434-3.583 3.977-5.935 7.862-5.466A6.87 6.87 0 0 1 0 0m-11.3-1.293a3.66 3.66 0 0 0 1.641 3.456l5.511.666A5.655 5.655 0 0 0-2.982-.016a3.956 3.956 0 0 0-3.695-4.356c-2.265-.273-4.363.915-4.624 3.079" class="cls-1" data-name="Path 36"/>
        </g>
        <g id="Group_35" data-name="Group 35" transform="translate(651.226 594.68)">
            <path id="Path_37" d="M0 0a9.883 9.883 0 0 1-.966 2.543c2.09.487 3.007.265 3.372-1.433a14.47 14.47 0 0 0 .205-3.856c-.014-.42.3-.6.688-.618h1.292a.61.61 0 0 1 .67.6 14.049 14.049 0 0 1-.222 4.754c-.917 4.26-3.6 4.1-6.928 3.385l-7.088-1.526a.669.669 0 0 1-.5-.768l.2-.932c.063-.3.224-.4.586-.465l.97-.14a5.869 5.869 0 0 1-.816-4.46 4.228 4.228 0 0 1 5.388-3.332C-.719-5.725.73-3.394 0 0m-6.3-1.772a4.01 4.01 0 0 0 1.02 3.351l2.128.459A5.117 5.117 0 0 0-2.121-.177c.344-1.6-.252-2.875-1.616-3.169A2.048 2.048 0 0 0-6.3-1.772" class="cls-1" data-name="Path 37"/>
        </g>
        <g id="Group_36" data-name="Group 36" transform="translate(662.686 609.177)">
            <path id="Path_38" d="M0 0a.671.671 0 0 1 .445.8l-.534 1.866a.668.668 0 0 1-.8.444l-21.667-6.176a.67.67 0 0 1-.447-.8l.532-1.866a.67.67 0 0 1 .8-.444z" class="cls-1" data-name="Path 38"/>
        </g>
        <g id="Group_37" data-name="Group 37" transform="translate(640.06 610.348)">
            <path id="Path_39" d="M0 0l1.017 1.111a.588.588 0 0 1-.117.861A7.041 7.041 0 0 0-.985 4.667c-.336.967-.165 1.712.542 1.959.868.3 1.533-.257 2.956-1.745C4.076 3.192 5.884 1.95 8 2.69c1.606.563 3.075 2.555 2 5.643a7.642 7.642 0 0 1-2.323 3.442.763.763 0 0 1-1.024-.068l-.891-.961A.718.718 0 0 1 5.8 9.82a7.783 7.783 0 0 0 1.6-2.4c.382-1.094.025-1.616-.456-1.784-.837-.292-1.472.387-2.458 1.449C2.634 9.075.963 10.653-1.447 9.81c-1.994-.7-3.1-3.212-2.1-6.074a7.166 7.166 0 0 1 2.8-3.78A.572.572 0 0 1 0 0" class="cls-1" data-name="Path 39"/>
        </g>
        <g id="Group_38" data-name="Group 38" transform="translate(645.783 627.498)">
            <path id="Path_40" d="M0 0a.666.666 0 0 1 .324.853l-.4.9a.552.552 0 0 1-.6.329l-1.223-.1a6.979 6.979 0 0 1-.21 5.13c-1.7 3.791-5 3.99-8.233 2.541l-6.243-2.8A.668.668 0 0 1-16.907 6l.793-1.771a.647.647 0 0 1 .856-.326l6.367 2.856c1.988.893 3.507.417 4.234-1.2a4.5 4.5 0 0 0-.319-4.285l-7.58-3.4c-.4-.182-.507-.451-.269-.98l.725-1.614a.672.672 0 0 1 .857-.324z" class="cls-1" data-name="Path 40"/>
        </g>
        <g id="Group_39" data-name="Group 39" transform="translate(635.843 649.925)">
            <path id="Path_41" d="M0 0a6.131 6.131 0 0 1-8.574 2.335 8.68 8.68 0 0 1-.767-.513A.625.625 0 0 1-9.54 1l4.577-8.054a3.946 3.946 0 0 0-5.1 1.605 5.809 5.809 0 0 0-.639 3.122c.005.474.007.749-.425.817l-1.6.191c-.354.072-.643.024-.735-.5a7.83 7.83 0 0 1 1.008-5.225 6.815 6.815 0 0 1 9.6-2.418A6.843 6.843 0 0 1 0 0m-6.448-.1a3.225 3.225 0 0 0 4.185-1.225 3.445 3.445 0 0 0-.919-4.517z" class="cls-1" data-name="Path 41"/>
        </g>
        <g id="Group_40" data-name="Group 40" transform="translate(620.571 651.728)">
            <path id="Path_42" d="M0 0l.7 1.339a.587.587 0 0 1-.339.8 7.031 7.031 0 0 0-2.519 2.116c-.576.845-.6 1.61.016 2.032.759.518 1.547.149 3.308-.919 1.948-1.229 4.013-1.962 5.87-.7 1.409.959 2.308 3.263.467 5.965a7.643 7.643 0 0 1-3.134 2.725.76.76 0 0 1-.97-.331l-.613-1.158a.717.717 0 0 1 .275-.886 7.768 7.768 0 0 0 2.161-1.9c.655-.957.443-1.554.021-1.841-.731-.5-1.52-.007-2.746.765C.2 9.448-1.827 10.54-3.938 9.1-5.681 7.913-6.1 5.2-4.39 2.692A7.144 7.144 0 0 1-.7-.234.57.57 0 0 1 0 0" class="cls-1" data-name="Path 42"/>
        </g>
        <g id="Group_41" data-name="Group 41" transform="translate(281.856 590.528)">
            <path id="Path_43" d="M0 0l24.7 4.972a.8.8 0 0 1 .5.478l.076.333a.792.792 0 0 1-.233.647L5.077 21.756a.6.6 0 0 1-.992-.362L3.6 19.3a.794.794 0 0 1 .318-.878l4.066-3.117L5.448 4.463C3.766 4.155 2.114 3.808.432 3.5a.853.853 0 0 1-.675-.646L-.728.765A.6.6 0 0 1 0 0m10.54 13.383l8.134-6.2-.036-.166L8.6 5.091z" class="cls-1" data-name="Path 43"/>
        </g>
        <g id="Group_42" data-name="Group 42" transform="translate(310.167 611.609)">
            <path id="Path_44" d="M0 0a.669.669 0 0 1 .838.366l.835 2.124a.652.652 0 0 1-.366.841l-13.094 5.134c-3.168 1.245-4.847 4.243-3.58 7.477 1.285 3.266 4.533 4.367 7.67 3.137l13.159-5.162a.646.646 0 0 1 .836.366l.835 2.125a.667.667 0 0 1-.368.836L-6.547 22.47a9.062 9.062 0 0 1-11.988-5.285 9.026 9.026 0 0 1 5.221-11.961z" class="cls-1" data-name="Path 44"/>
        </g>
        <g id="Group_43" data-name="Group 43" transform="translate(320.45 636.155)">
            <path id="Path_45" d="M0 0a.639.639 0 0 1 .868.2L4.81 6.968a11.951 11.951 0 0 1-4.25 16.3 11.964 11.964 0 0 1-16.339-4.308l-3.941-6.76a.644.644 0 0 1 .252-.856zm-13.225 16.923a8.4 8.4 0 0 0 11.881 3.083A8.368 8.368 0 0 0 1.775 8.184L-.487 4.3l-15 8.739z" class="cls-1" data-name="Path 45"/>
        </g>
        <g id="Group_44" data-name="Group 44" transform="translate(318.348 670.175)">
            <path id="Path_46" d="M0 0c.537-.031 1.106-.131 1.645-.165s.937.26.926.745c-.007.264-.105 3.67 1.512 5.735C5.531 8.163 7.58 8.46 8.945 7.39c1.608-1.261 1.533-3.452.555-6.965-.989-3.634-1.25-6.89 1.857-9.325 2.09-1.639 6.216-2.277 9.556 1.983a11.523 11.523 0 0 1 2.3 6.193.809.809 0 0 1-.784.876c-.488.038-1.053.091-1.542.127a.8.8 0 0 1-1-.726c-.041-.273-.277-3.114-1.495-4.666-1.764-2.252-3.792-1.915-4.784-1.138-1.528 1.195-1.54 3.108-.708 6.044 1.176 4.1 1.784 7.9-1.486 10.465C8.625 12.44 4.4 11.733 1.664 8.25A11.035 11.035 0 0 1-.731.833C-.7.424-.667.088 0 0" class="cls-1" data-name="Path 46"/>
        </g>
        <g id="Group_45" data-name="Group 45" transform="translate(354.719 681.997)">
            <path id="Path_47" d="M0 0a.645.645 0 0 1 .912-.06l5.73 5.038C9.736 7.7 10.163 11.7 7.8 14.385a6.546 6.546 0 0 1-6.233 1.729c.858 1.754 1.6 4.627-.469 6.98-2.518 2.864-6.694 2.868-9.915.034l-6.012-5.285a.649.649 0 0 1-.059-.914zm-6.773 20.752a3.627 3.627 0 0 0 5.212-.361c1.372-1.558.879-3.987-.784-5.45l-3.5-3.08-4.813 5.472zm6.425-8.135a3.415 3.415 0 0 0 5.04-.42 3.289 3.289 0 0 0-.317-4.951L.921 4.211-3.8 9.582z" class="cls-1" data-name="Path 47"/>
        </g>
        <g id="Group_46" data-name="Group 46" transform="translate(372.544 696.788)">
            <path id="Path_48" d="M0 0a.648.648 0 0 1 .9-.168L2.756 1.1a.667.667 0 0 1 .172.9L-8.333 18.552-.7 23.74a.646.646 0 0 1 .172.9l-1.052 1.549a.646.646 0 0 1-.9.172l-10.025-6.818a.645.645 0 0 1-.171-.9z" class="cls-1" data-name="Path 48"/>
        </g>
        <g id="Group_47" data-name="Group 47" transform="translate(397.931 710.873)">
            <path id="Path_49" d="M0 0a12.237 12.237 0 0 1 5.555 16.447 12.18 12.18 0 0 1-16.4 5.539A12.15 12.15 0 0 1-16.4 5.615 12.208 12.208 0 0 1 0 0m-9.341 18.934A8.851 8.851 0 0 0 2.5 14.94 8.929 8.929 0 0 0-1.509 3.053 8.927 8.927 0 0 0-13.35 7.122a8.845 8.845 0 0 0 4.009 11.812" class="cls-1" data-name="Path 49"/>
        </g>
        <g id="Group_48" data-name="Group 48" transform="translate(417.162 719.762)">
            <path id="Path_50" d="M0 0a.681.681 0 0 1 .732-.316l.521.153A.694.694 0 0 1 1.7.359l1.915 18.7.131.04 11.707-14.7a.651.651 0 0 1 .66-.2l.521.154a.7.7 0 0 1 .445.665l-2.44 23.141a.578.578 0 0 1-.809.577l-2.123-.623a.71.71 0 0 1-.486-.64L13.1 12.162l-.1-.03L2.7 25.429a.582.582 0 0 1-.659.2l-.59-.175A.607.607 0 0 1 1 24.928L-.488 8.163l-.128-.038-6.649 13.908a.664.664 0 0 1-.723.284l-2.123-.625a.611.611 0 0 1-.4-.933z" class="cls-1" data-name="Path 50"/>
        </g>
        <g id="Group_49" data-name="Group 49" transform="translate(440.695 746.686)">
            <path id="Path_51" d="M0 0c.364-.4.7-.865 1.066-1.264a.772.772 0 0 1 1.185-.111c.18.2 2.482 2.712 5.081 3.069 2.327.319 4.007-.894 4.244-2.616.278-2.024-1.3-3.548-4.454-5.391-3.242-1.923-5.7-4.082-5.158-8 .36-2.632 2.88-5.964 8.246-5.229a11.529 11.529 0 0 1 5.97 2.848.805.805 0 0 1 .046 1.174c-.326.369-.695.8-1.02 1.167a.805.805 0 0 1-1.227.177c-.217-.168-2.366-2.044-4.325-2.314-2.835-.388-4.059 1.267-4.23 2.515-.263 1.924 1.059 3.308 3.7 4.84 3.7 2.122 6.783 4.438 6.22 8.556-.482 3.509-4.015 5.947-8.4 5.347A11.04 11.04 0 0 1 .053 1.106.714.714 0 0 1 0 0" class="cls-1" data-name="Path 51"/>
        </g>
        <g id="Group_50" data-name="Group 50" transform="translate(468.349 732.185)">
            <path id="Path_52" d="M0 0l-5.55-.123a.647.647 0 0 1-.632-.661l.043-1.906a.647.647 0 0 1 .659-.633L9.162-3a.648.648 0 0 1 .634.66L9.752-.432A.651.651 0 0 1 9.091.2L3.541.079 3.1 20.062a.668.668 0 0 1-.661.634l-2.245-.049a.671.671 0 0 1-.633-.662z" class="cls-1" data-name="Path 52"/>
        </g>
        <g id="Group_51" data-name="Group 51" transform="translate(483.842 729.562)">
            <path id="Path_53" d="M0 0a.647.647 0 0 1 .583-.707l13.553-1.325a.645.645 0 0 1 .707.579l.184 1.9a.644.644 0 0 1-.577.707L3.738 2.2l.678 6.915 9.046-.884a.671.671 0 0 1 .709.582l.186 1.9a.649.649 0 0 1-.583.707l-9.049.88.713 7.285 10.709-1.046a.643.643 0 0 1 .7.581l.184 1.864a.645.645 0 0 1-.583.7L2.9 23.013a.642.642 0 0 1-.705-.579z" class="cls-1" data-name="Path 53"/>
        </g>
        <g id="Group_52" data-name="Group 52" transform="translate(505.672 726.933)">
            <path id="Path_54" d="M0 0a.645.645 0 0 1 .48-.777l9.015-2.132a7.348 7.348 0 0 1 8.9 5.384 7.556 7.556 0 0 1-3.313 7.889l6.531 7.346a.644.644 0 0 1-.336 1.094l-2.586.613a.629.629 0 0 1-.6-.174l-6.48-7.743L6.6 12.684l2 8.453a.668.668 0 0 1-.479.779l-2.157.509a.646.646 0 0 1-.777-.482zm11.9 8.423a4.233 4.233 0 0 0 3.071-5.067A4.173 4.173 0 0 0 9.994.369l-5.9 1.4L6 9.818z" class="cls-1" data-name="Path 54"/>
        </g>
    </g>
</svg>
